<?xml version="1.0" standalone="no"?>
<!DOCTYPE svg PUBLIC "-//W3C//DTD SVG 20010904//EN"
 "http://www.w3.org/TR/2001/REC-SVG-20010904/DTD/svg10.dtd">
<svg version="1.0" xmlns="http://www.w3.org/2000/svg"
 width="600.000000pt" height="206.000000pt" viewBox="0 0 600.000000 206.000000"
 preserveAspectRatio="xMidYMid meet">

<g transform="translate(0.000000,206.000000) scale(0.100000,-0.100000)"
fill="#000000" stroke="none">
<path d="M947 1616 c-3 -7 -1 -18 4 -23 13 -13 7 -99 -6 -95 -5 1 -10 21 -10
45 0 32 -4 42 -18 45 -21 4 -34 -25 -18 -41 19 -19 13 -47 -9 -47 -17 0 -19
-4 -13 -27 5 -16 8 -78 8 -140 l0 -112 74 -3 73 -3 33 -90 c18 -49 82 -214
143 -365 71 -178 115 -301 123 -347 l12 -73 38 0 c34 0 38 3 49 36 14 43 96
165 190 284 37 47 89 118 115 158 76 119 193 370 217 467 20 79 20 91 7 128
-19 56 -61 77 -154 77 l-70 0 0 -140 0 -140 49 0 c47 0 48 -1 42 -26 -12 -46
-94 -203 -146 -279 -50 -72 -206 -233 -216 -222 -3 3 10 36 29 73 51 103 124
293 154 402 20 71 27 122 27 190 1 91 0 95 -27 118 -25 21 -37 24 -118 24
l-89 0 7 -42 c5 -24 8 -87 7 -140 l-1 -98 69 0 c37 0 68 -4 68 -8 0 -33 -128
-360 -177 -454 l-28 -53 -5 360 c-3 198 -9 369 -14 380 -22 49 -35 55 -126 55
l-87 0 14 -52 c9 -35 13 -82 10 -135 l-5 -83 27 -1 c14 0 42 -1 61 -2 l35 -2
6 -60 c12 -116 20 -440 10 -430 -16 17 -172 415 -192 490 -11 39 -22 104 -25
145 -8 107 -12 120 -39 130 -28 10 -31 30 -12 60 10 17 9 22 -2 29 -25 16 -40
1 -38 -37 1 -20 -2 -38 -8 -40 -13 -3 -19 62 -7 85 5 10 7 24 5 31 -6 16 -40
15 -46 -2z"/>
<path d="M4088 1624 c-4 -3 -4 -30 -1 -60 5 -47 4 -54 -12 -54 -15 0 -17 6
-12 36 4 26 2 37 -9 41 -22 8 -42 -13 -26 -29 21 -21 14 -48 -11 -48 -23 0
-23 0 -19 -117 2 -65 -1 -137 -6 -160 l-10 -43 92 0 91 0 117 -333 c64 -182
127 -371 140 -420 l23 -87 35 0 c34 1 36 3 77 88 40 85 115 188 242 335 160
184 291 445 291 579 0 41 -6 62 -26 92 -35 51 -75 66 -176 66 l-83 0 0 -122
c0 -68 -4 -140 -8 -161 l-8 -38 75 3 c41 1 78 -1 82 -5 15 -15 -63 -162 -148
-279 -84 -115 -178 -183 -270 -196 -33 -4 -40 -2 -35 9 136 311 173 431 184
589 5 85 3 100 -16 138 -27 53 -49 62 -159 62 l-87 0 0 -132 c0 -73 -3 -145
-8 -160 l-7 -28 86 0 87 0 -6 -52 c-3 -29 -16 -85 -30 -124 -38 -109 -118
-294 -127 -294 -10 0 -6 -10 -91 233 l-69 198 0 142 c0 152 -8 183 -49 203
-38 19 -46 31 -31 48 15 19 6 46 -15 46 -16 0 -18 -8 -15 -52 1 -16 -4 -28
-10 -28 -8 0 -11 18 -8 57 2 46 0 58 -12 61 -9 1 -19 0 -22 -4z"/>
</g>
</svg>
